<?xml version="1.0" encoding="UTF-8" standalone="no"?>
<!-- Created with Inkscape (http://www.inkscape.org/) -->

<svg
   width="31.25mm"
   height="25mm"
   viewBox="0 0 31.25 25"
   version="1.1"
   id="svg5"
   xml:space="preserve"
   sodipodi:docname="kintsugi3d-logo.svg"
   inkscape:export-filename="kintsugi3d-logo.svg"
   inkscape:export-xdpi="101.6"
   inkscape:export-ydpi="101.6"
   inkscape:version="1.3.2 (091e20ef0f, 2023-11-25)"
   xmlns:inkscape="http://www.inkscape.org/namespaces/inkscape"
   xmlns:sodipodi="http://sodipodi.sourceforge.net/DTD/sodipodi-0.dtd"
   xmlns="http://www.w3.org/2000/svg"
   xmlns:svg="http://www.w3.org/2000/svg"><sodipodi:namedview
     id="namedview1"
     pagecolor="#ffffff"
     bordercolor="#000000"
     borderopacity="0.25"
     inkscape:showpageshadow="2"
     inkscape:pageopacity="0.0"
     inkscape:pagecheckerboard="0"
     inkscape:deskcolor="#d1d1d1"
     inkscape:document-units="mm"
     inkscape:zoom="8.5195833"
     inkscape:cx="47.244094"
     inkscape:cy="47.244094"
     inkscape:window-width="1920"
     inkscape:window-height="1011"
     inkscape:window-x="0"
     inkscape:window-y="0"
     inkscape:window-maximized="1"
     inkscape:current-layer="svg5" /><defs
     id="defs2"><rect
       x="741.73456"
       y="372.14465"
       width="54.501736"
       height="16.180202"
       id="rect7577" /><rect
       x="392.58279"
       y="315.08813"
       width="1.7031792"
       height="14.477023"
       id="rect7567" /><rect
       x="3.4063585"
       y="24.696098"
       width="68.97876"
       height="113.26142"
       id="rect24038" /><rect
       x="42.796021"
       y="814.98511"
       width="293.99005"
       height="117.22389"
       id="rect20750" /><rect
       x="3.4063585"
       y="24.696098"
       width="27.145819"
       height="63.950569"
       id="rect24038-9" /><rect
       x="3.4063585"
       y="24.696098"
       width="24.53126"
       height="51.458485"
       id="rect24038-9-3" /><rect
       x="3.4063585"
       y="24.696098"
       width="27.519325"
       height="58.690742"
       id="rect24038-9-3-8" /><rect
       x="3.4063585"
       y="24.696098"
       width="31.25441"
       height="60.005699"
       id="rect24038-9-3-8-8" /><rect
       x="3.4063585"
       y="24.696098"
       width="31.25441"
       height="63.293091"
       id="rect24038-9-3-8-8-1" /><rect
       x="3.4063585"
       y="24.696098"
       width="35.152859"
       height="73.590446"
       id="rect24038-9-3-8-8-1-5" /><rect
       x="3.4063585"
       y="24.696098"
       width="36.209297"
       height="68.011559"
       id="rect24038-9-3-8-8-1-5-0" /><rect
       x="3.4063585"
       y="24.696098"
       width="60.507446"
       height="73.590446"
       id="rect24038-9-3-8-8-1-5-0-3" /><rect
       x="3.4063585"
       y="24.696098"
       width="54.1688"
       height="64.292305"
       id="rect24038-9-3-8-8-1-5-0-3-3" /><rect
       x="3.4063585"
       y="24.696098"
       width="27.757769"
       height="81.028961"
       id="rect24038-9-3-8-8-1-5-8" /><rect
       x="3.4063585"
       y="24.696098"
       width="52.05592"
       height="51.274906"
       id="rect24038-9-3-8-8-1-5-0-3-3-5" /><rect
       x="3.4063585"
       y="24.696098"
       width="53.112358"
       height="60.573048"
       id="rect24038-9-3-8-8-1-5-0-3-3-5-4" /><rect
       x="3.4063585"
       y="24.696098"
       width="68.97876"
       height="113.26142"
       id="rect24038-5" /><rect
       x="3.4063585"
       y="24.696098"
       width="27.145819"
       height="63.950569"
       id="rect24038-9-1" /><rect
       x="3.4063585"
       y="24.696098"
       width="24.53126"
       height="51.458485"
       id="rect24038-9-3-4" /><rect
       x="3.4063585"
       y="24.696098"
       width="35.646175"
       height="58.426201"
       id="rect24038-9-3-4-9" /><rect
       x="3.4063585"
       y="24.696098"
       width="117.11427"
       height="65.146156"
       id="rect24038-9-3-8-8-1-5-0-7" /><rect
       x="3.4063585"
       y="24.696098"
       width="27.519325"
       height="58.690742"
       id="rect24038-9-3-8-9" /><rect
       x="3.4063585"
       y="24.696098"
       width="117.11427"
       height="65.146156"
       id="rect24038-9-3-8-8-1-5-0-7-5" /><rect
       x="3.4063585"
       y="24.696098"
       width="117.11427"
       height="65.146156"
       id="rect24038-9-3-8-8-1-5-0-7-5-7" /><rect
       x="3.4063585"
       y="24.696098"
       width="117.11427"
       height="65.146156"
       id="rect24038-9-3-8-8-1-5-0-7-9" /><rect
       x="3.4063585"
       y="24.696098"
       width="117.11427"
       height="65.146156"
       id="rect24038-9-3-8-8-1-5-0-7-5-7-4" /><rect
       x="3.4063585"
       y="24.696098"
       width="70.673241"
       height="122.25231"
       id="rect24038-9-3-8-8-1-5-0-7-9-7" /><rect
       x="3.4063585"
       y="24.696098"
       width="126.04524"
       height="153.60471"
       id="rect24038-9-3-8-8-1-5-0-7-5-7-4-5" /><rect
       x="3.4063585"
       y="24.696098"
       width="67.579659"
       height="140.87877"
       id="rect24038-9-3-8-9-8" /><rect
       x="3.4063585"
       y="24.696098"
       width="126.04524"
       height="153.60471"
       id="rect24038-9-3-8-8-1-5-0-7-5-7-4-5-5" /><rect
       x="3.4063585"
       y="24.696098"
       width="67.579659"
       height="140.87877"
       id="rect24038-9-3-8-9-8-6" /><rect
       x="3.4063585"
       y="24.696098"
       width="126.04524"
       height="153.60471"
       id="rect24038-9-3-8-8-1-5-0-7-5-7-4-5-5-8" /><rect
       x="3.4063585"
       y="24.696098"
       width="67.579659"
       height="140.87877"
       id="rect24038-9-3-8-9-8-6-6" /><rect
       x="3.4063585"
       y="24.696098"
       width="126.04524"
       height="153.60471"
       id="rect24038-9-3-8-8-1-5-0-7-5-7-4-5-5-6" /><rect
       x="3.4063585"
       y="24.696098"
       width="126.04524"
       height="153.60471"
       id="rect24038-9-3-8-8-1-5-0-7-5-7-4-5-5-6-4" /><rect
       x="3.4063585"
       y="24.696098"
       width="126.04524"
       height="153.60471"
       id="rect24038-9-3-8-8-1-5-0-7-5-7-4-5-5-6-4-0" /><rect
       x="3.4063585"
       y="24.696098"
       width="126.04524"
       height="153.60471"
       id="rect24038-9-3-8-8-1-5-0-7-5-7-4-5-5-6-2" /><rect
       x="3.4063585"
       y="24.696098"
       width="126.04524"
       height="153.60471"
       id="rect24038-9-3-8-8-1-5-0-7-5-7-4-5-5-6-4-0-7" /><rect
       x="3.4063585"
       y="24.696098"
       width="126.04524"
       height="153.60471"
       id="rect24038-9-3-8-8-1-5-0-7-5-7-4-5-5-6-4-0-7-8" /><rect
       x="3.4063585"
       y="24.696098"
       width="126.04524"
       height="153.60471"
       id="rect24038-9-3-8-8-1-5-0-7-5-7-4-5-5-6-4-0-9" /><rect
       x="3.4063585"
       y="24.696098"
       width="126.04524"
       height="153.60471"
       id="rect24038-9-3-8-8-1-5-0-7-5-7-4-5-5-6-2-9" /><rect
       x="3.4063585"
       y="24.696098"
       width="126.04524"
       height="153.60471"
       id="rect24038-9-3-8-8-1-5-0-7-5-7-4-5-5-6-4-8" /><rect
       x="3.4063585"
       y="24.696098"
       width="126.04524"
       height="153.60471"
       id="rect24038-9-3-8-8-1-5-0-7-5-7-4-5-5-6-0" /></defs><g
     id="layer15"
     style="display:none"
     transform="translate(-129.64101,-615.96543)"><rect
       style="display:inline;fill:#a8a8ae;fill-opacity:1;stroke:none;stroke-width:0.446994;stroke-dasharray:none;stroke-opacity:1"
       id="rect24447"
       width="200.59607"
       height="244.20097"
       x="100.38357"
       y="509.1235" /></g><g
     id="layer2"
     style="display:none"><text
       xml:space="preserve"
       transform="matrix(0.21369411,0,0,0.17044267,-13.54806,-59.46276)"
       id="text24036-1-8-0-4-2-1"
       style="font-style:normal;font-variant:normal;font-weight:normal;font-stretch:normal;font-size:43.1621px;font-family:SimSun-ExtB;-inkscape-font-specification:SimSun-ExtB;white-space:pre;shape-inside:url(#rect24038-9-3-8-9-8-6);display:inline;fill:#000000;fill-opacity:1;stroke:none;stroke-width:2.98961;stroke-dasharray:none;stroke-opacity:1"><tspan
         x="3.40625"
         y="63.967438"
         id="tspan1">
</tspan><tspan
         x="3.40625"
         y="137.51414"
         id="tspan3"><tspan
           style="font-size:64.697px"
           id="tspan2">2</tspan></tspan></text><text
       xml:space="preserve"
       transform="matrix(0.17427933,0,0,0.1390054,-14.30682,-80.148549)"
       id="text24036-1-8-0-5-3-2-7-0-2-8-5-4-6"
       style="font-style:normal;font-variant:normal;font-weight:normal;font-stretch:normal;font-size:79.3287px;font-family:SimSun-ExtB;-inkscape-font-specification:SimSun-ExtB;white-space:pre;shape-inside:url(#rect24038-9-3-8-8-1-5-0-7-5-7-4-5-5);display:inline;fill:#000000;fill-opacity:1;stroke:none;stroke-width:2.98961;stroke-dasharray:none;stroke-opacity:1"><tspan
         x="3.40625"
         y="96.874525"
         id="tspan4">1</tspan></text><text
       xml:space="preserve"
       transform="matrix(0.17427933,0,0,0.1390054,8.5129701,-100.58976)"
       id="text24036-1-8-0-5-3-2-7-0-2-8-5-4-6-7"
       style="font-style:normal;font-variant:normal;font-weight:normal;font-stretch:normal;font-size:79.3287px;font-family:SimSun-ExtB;-inkscape-font-specification:SimSun-ExtB;white-space:pre;shape-inside:url(#rect24038-9-3-8-8-1-5-0-7-5-7-4-5-5-6);display:inline;fill:#000000;fill-opacity:1;stroke:none;stroke-width:2.98961;stroke-dasharray:none;stroke-opacity:1"><tspan
         x="3.40625"
         y="96.874525"
         id="tspan5">A</tspan></text><text
       xml:space="preserve"
       transform="matrix(0.17427933,0,0,0.1390054,41.761701,-100.50012)"
       id="text24036-1-8-0-5-3-2-7-0-2-8-5-4-6-7-0"
       style="font-style:normal;font-variant:normal;font-weight:normal;font-stretch:normal;font-size:79.3287px;font-family:SimSun-ExtB;-inkscape-font-specification:SimSun-ExtB;white-space:pre;shape-inside:url(#rect24038-9-3-8-8-1-5-0-7-5-7-4-5-5-6-4);display:inline;fill:#000000;fill-opacity:1;stroke:none;stroke-width:2.98961;stroke-dasharray:none;stroke-opacity:1"><tspan
         x="3.40625"
         y="96.874525"
         id="tspan6">B</tspan></text><text
       xml:space="preserve"
       transform="matrix(0.17427933,0,0,0.1390054,73.513601,-100.48461)"
       id="text24036-1-8-0-5-3-2-7-0-2-8-5-4-6-7-2"
       style="font-style:normal;font-variant:normal;font-weight:normal;font-stretch:normal;font-size:79.3287px;font-family:SimSun-ExtB;-inkscape-font-specification:SimSun-ExtB;white-space:pre;shape-inside:url(#rect24038-9-3-8-8-1-5-0-7-5-7-4-5-5-6-2);display:inline;fill:#000000;fill-opacity:1;stroke:none;stroke-width:2.98961;stroke-dasharray:none;stroke-opacity:1"><tspan
         x="3.40625"
         y="96.874525"
         id="tspan7">C</tspan></text><text
       xml:space="preserve"
       transform="matrix(0.17427933,0,0,0.1390054,105.17482,-100.39497)"
       id="text24036-1-8-0-5-3-2-7-0-2-8-5-4-6-7-0-0"
       style="font-style:normal;font-variant:normal;font-weight:normal;font-stretch:normal;font-size:79.3287px;font-family:SimSun-ExtB;-inkscape-font-specification:SimSun-ExtB;white-space:pre;shape-inside:url(#rect24038-9-3-8-8-1-5-0-7-5-7-4-5-5-6-4-0);display:inline;fill:#000000;fill-opacity:1;stroke:none;stroke-width:2.98961;stroke-dasharray:none;stroke-opacity:1"><tspan
         x="3.40625"
         y="96.874525"
         id="tspan8">D</tspan></text><text
       xml:space="preserve"
       transform="matrix(0.17427933,0,0,0.1390054,138.37468,-100.43978)"
       id="text24036-1-8-0-5-3-2-7-0-2-8-5-4-6-7-0-0-9"
       style="font-style:normal;font-variant:normal;font-weight:normal;font-stretch:normal;font-size:79.3287px;font-family:SimSun-ExtB;-inkscape-font-specification:SimSun-ExtB;white-space:pre;shape-inside:url(#rect24038-9-3-8-8-1-5-0-7-5-7-4-5-5-6-4-0-7);display:inline;fill:#000000;fill-opacity:1;stroke:none;stroke-width:2.98961;stroke-dasharray:none;stroke-opacity:1"><tspan
         x="3.40625"
         y="96.874525"
         id="tspan9">E</tspan></text><text
       xml:space="preserve"
       transform="matrix(0.17427933,0,0,0.1390054,7.7367101,-20.12964)"
       id="text24036-1-8-0-5-3-2-7-0-2-8-5-4-6-7-5"
       style="font-style:normal;font-variant:normal;font-weight:normal;font-stretch:normal;font-size:79.3287px;font-family:SimSun-ExtB;-inkscape-font-specification:SimSun-ExtB;white-space:pre;shape-inside:url(#rect24038-9-3-8-8-1-5-0-7-5-7-4-5-5-6-0);display:inline;fill:#000000;fill-opacity:1;stroke:none;stroke-width:2.98961;stroke-dasharray:none;stroke-opacity:1"><tspan
         x="3.40625"
         y="96.874525"
         id="tspan10">A</tspan></text><text
       xml:space="preserve"
       transform="matrix(0.17427933,0,0,0.1390054,40.98544,-20.04)"
       id="text24036-1-8-0-5-3-2-7-0-2-8-5-4-6-7-0-03"
       style="font-style:normal;font-variant:normal;font-weight:normal;font-stretch:normal;font-size:79.3287px;font-family:SimSun-ExtB;-inkscape-font-specification:SimSun-ExtB;white-space:pre;shape-inside:url(#rect24038-9-3-8-8-1-5-0-7-5-7-4-5-5-6-4-8);display:inline;fill:#000000;fill-opacity:1;stroke:none;stroke-width:2.98961;stroke-dasharray:none;stroke-opacity:1"><tspan
         x="3.40625"
         y="96.874525"
         id="tspan11">B</tspan></text><text
       xml:space="preserve"
       transform="matrix(0.17427933,0,0,0.1390054,72.73734,-20.02449)"
       id="text24036-1-8-0-5-3-2-7-0-2-8-5-4-6-7-2-4"
       style="font-style:normal;font-variant:normal;font-weight:normal;font-stretch:normal;font-size:79.3287px;font-family:SimSun-ExtB;-inkscape-font-specification:SimSun-ExtB;white-space:pre;shape-inside:url(#rect24038-9-3-8-8-1-5-0-7-5-7-4-5-5-6-2-9);display:inline;fill:#000000;fill-opacity:1;stroke:none;stroke-width:2.98961;stroke-dasharray:none;stroke-opacity:1"><tspan
         x="3.40625"
         y="96.874525"
         id="tspan12">C</tspan></text><text
       xml:space="preserve"
       transform="matrix(0.17427933,0,0,0.1390054,104.39856,-19.93485)"
       id="text24036-1-8-0-5-3-2-7-0-2-8-5-4-6-7-0-0-7"
       style="font-style:normal;font-variant:normal;font-weight:normal;font-stretch:normal;font-size:79.3287px;font-family:SimSun-ExtB;-inkscape-font-specification:SimSun-ExtB;white-space:pre;shape-inside:url(#rect24038-9-3-8-8-1-5-0-7-5-7-4-5-5-6-4-0-9);display:inline;fill:#000000;fill-opacity:1;stroke:none;stroke-width:2.98961;stroke-dasharray:none;stroke-opacity:1"><tspan
         x="3.40625"
         y="96.874525"
         id="tspan13">D</tspan></text><text
       xml:space="preserve"
       transform="matrix(0.17427933,0,0,0.1390054,137.59842,-19.97966)"
       id="text24036-1-8-0-5-3-2-7-0-2-8-5-4-6-7-0-0-9-2"
       style="font-style:normal;font-variant:normal;font-weight:normal;font-stretch:normal;font-size:79.3287px;font-family:SimSun-ExtB;-inkscape-font-specification:SimSun-ExtB;white-space:pre;shape-inside:url(#rect24038-9-3-8-8-1-5-0-7-5-7-4-5-5-6-4-0-7-8);display:inline;fill:#000000;fill-opacity:1;stroke:none;stroke-width:2.98961;stroke-dasharray:none;stroke-opacity:1"><tspan
         x="3.40625"
         y="96.874525"
         id="tspan14">E</tspan></text><text
       xml:space="preserve"
       transform="matrix(0.21369411,0,0,0.17044267,-13.9801,21.13782)"
       id="text24036-1-8-0-4-2-1-4"
       style="font-style:normal;font-variant:normal;font-weight:normal;font-stretch:normal;font-size:43.1621px;font-family:SimSun-ExtB;-inkscape-font-specification:SimSun-ExtB;white-space:pre;shape-inside:url(#rect24038-9-3-8-9-8-6-6);display:inline;fill:#000000;fill-opacity:1;stroke:none;stroke-width:2.98961;stroke-dasharray:none;stroke-opacity:1"><tspan
         x="3.40625"
         y="63.967438"
         id="tspan15">
</tspan><tspan
         x="3.40625"
         y="137.51414"
         id="tspan17"><tspan
           style="font-size:64.697px"
           id="tspan16">4</tspan></tspan></text><text
       xml:space="preserve"
       transform="matrix(0.17427933,0,0,0.1390054,-14.73886,0.45202999)"
       id="text24036-1-8-0-5-3-2-7-0-2-8-5-4-6-0"
       style="font-style:normal;font-variant:normal;font-weight:normal;font-stretch:normal;font-size:79.3287px;font-family:SimSun-ExtB;-inkscape-font-specification:SimSun-ExtB;white-space:pre;shape-inside:url(#rect24038-9-3-8-8-1-5-0-7-5-7-4-5-5-8);display:inline;fill:#000000;fill-opacity:1;stroke:none;stroke-width:2.98961;stroke-dasharray:none;stroke-opacity:1"><tspan
         x="3.40625"
         y="96.874525"
         id="tspan18">3</tspan></text></g><g
     id="layer1"
     transform="translate(-29.257444,-106.84193)"
     style="display:none"><rect
       style="fill:#000080;stroke-width:0.791001"
       id="rect7307"
       width="25"
       height="25"
       x="29.257444"
       y="106.84193" /></g><g
     id="layer3"
     style="display:inline"
     transform="matrix(0.9,0,0,0.9,4.3417601,1.1869319)"><path
       id="path18154-5-6-5-9-7-2-2-4-6-2"
       style="display:inline;fill:#d4aa00;fill-opacity:1;stroke:none;stroke-width:0.8369;stroke-dasharray:none;stroke-opacity:1"
       d="m 6.1424854,1.3257168 -0.00244,6.364e-4 c -0.4353416,0 0.8739163,3.3512212 1.4153087,4.2837089 -2.3159663,1.0109159 -3.833666,2.8259512 -4.1791213,5.2468149 -0.00244,0.01737 -0.0061,0.03524 -0.00854,0.0531 -0.021227,0.132627 -0.029401,0.277394 -0.025253,0.434446 1.21e-5,7.46e-4 -3.67e-5,0.0012 0,0.0024 -9.028e-4,0.01616 -0.00122,0.03256 -0.00244,0.0487 0.00244,0.560574 0.1189459,1.117892 0.3454797,1.657456 1.2118077,3.830553 5.3117903,9.787554 5.9714334,10.498059 1.9542981,0.348466 3.9810001,0.432267 5.8012121,0 0.659643,-0.710505 4.759625,-6.667506 5.971433,-10.498059 0.226533,-0.539564 0.34304,-1.096882 0.34548,-1.657456 -0.0012,-0.01616 -0.0012,-0.03256 -0.0024,-0.0487 3.6e-5,-0.0012 -1.2e-5,-0.0011 0,-0.0024 0.0037,-0.157052 -0.0037,-0.301819 -0.02525,-0.434446 -0.0024,-0.01786 -0.0061,-0.03573 -0.0086,-0.0531 -0.345454,-2.4208757 -1.863142,-4.235899 -4.17912,-5.2468149 0.541405,-0.9324877 1.85065,-4.2837089 1.415308,-4.2837089 l -0.0024,-6.364e-4 v -6.363e-4 c -4.366714,0.044788 -8.241248,0.00612 -12.8305063,0 z" /><path
       style="display:inline;fill:#d4aa00;fill-opacity:1;stroke:none;stroke-width:0.714852;stroke-dasharray:none;stroke-opacity:1"
       d="m 6.3588814,14.529603 c 0,0 4.3935286,7.841615 5.0052886,8.008457 0.611759,0.16684 1.557201,0.11126 1.835279,0.05563 0.278064,-0.05563 4.949669,-5.060894 4.949669,-5.060894 0,0 0.667378,-0.889811 0.61176,-1.112283 -0.05563,-0.222472 -3.003167,-4.115476 -3.003167,-4.115476 z"
       id="path18154-5-4-3-7-3-3-0-7-8" /><path
       id="path18154-5-6-5-8-2-1-7-3-7-0-5-0-3"
       style="display:inline;fill:#000000;fill-opacity:1;stroke:none;stroke-width:0.955828;stroke-dasharray:none;stroke-opacity:1"
       d="m 4.5293973,0.12831488 6.344e-4,6.466e-4 -0.00244,6.0998e-4 c -0.5134921,0 0.8025852,3.70646114 1.4411596,4.73770294 -2.3323186,1.4888477 -3.4948888,3.1253101 -3.9023667,5.8024816 -0.00244,0.01915 -0.0061,0.03879 -0.01098,0.05856 -0.1021103,0.784115 0.092473,1.725519 0.3751002,2.369156 1.4293504,4.23613 5.9511583,10.824301 6.7292101,11.610014 2.3338011,0.431889 4.4576121,0.378955 6.7544371,6.22e-4 0.77804,-0.785714 5.29986,-7.373872 6.729211,-11.610013 0.282626,-0.64365 0.477209,-1.585042 0.375099,-2.369157 -0.0049,-0.01976 -0.0086,-0.03953 -0.01098,-0.05868 C 22.600003,7.9930845 21.43742,6.3566223 19.105118,4.8677746 19.743693,3.8365694 21.05977,0.13010819 20.546278,0.13010819 l -0.0024,-6.4651e-4 6.35e-4,-6.0998e-4 C 15.054027,0.1595946 9.5903888,0.1349517 4.5290195,0.1282051 Z M 6.165994,1.383492 c 4.27196,0.038063 8.653728,0.0061 12.74289,6.222e-4 l -6.35e-4,6.344e-4 0.0024,6.465e-4 c 0.435342,0 -0.873928,3.3409255 -1.41532,4.2705205 2.315941,1.0078064 3.833666,2.8172588 4.17912,5.2306884 0.0024,0.01732 0.0061,0.03514 0.0086,0.05294 0.0216,0.132219 0.02891,0.276539 0.02525,0.433096 -1.3e-5,0.0012 3.6e-5,0.0012 0,0.0024 0.0012,0.01611 6.7e-4,0.03246 0.0024,0.04855 -0.0024,0.55885 -0.118947,1.114454 -0.34548,1.652346 -1.211808,3.818745 -5.311791,9.75746 -5.971434,10.465779 -1.950747,0.379346 -3.901885,0.316457 -5.7129605,-6.34e-4 -0.65967,-0.708318 -4.7596523,-6.647031 -5.97146,-10.465766 -0.2265338,-0.537903 -0.3430397,-1.093508 -0.3454796,-1.652358 0.00122,-0.0161 0.00122,-0.03246 0.00244,-0.04855 -3.65e-5,-0.0012 1.23e-5,-0.0012 0,-0.0024 -0.00366,-0.156569 0.00366,-0.30089 0.025253,-0.433109 0.00244,-0.01781 0.0061,-0.03562 0.00854,-0.05294 C 3.7456238,8.4725397 5.2633601,6.6630755 7.5792898,5.655269 7.0378973,4.7256496 5.7286394,1.3847486 6.1639811,1.3847486 l 0.00244,-6.466e-4 z" /><path
       id="path10013-2-3-4-5-8-7-27-4-9-8-0-9"
       style="display:inline;fill:#000000;fill-opacity:1;stroke:none;stroke-width:0.647797;stroke-dasharray:none;stroke-opacity:1"
       d="m 7.84069,2.4720719 c -0.3661823,0 1.0979608,3.3457076 1.5533711,4.1545391 -1.7406955,0.5780888 -3.1026311,1.5522243 -3.832385,2.7411217 1.899351,0.6705133 3.8503181,2.6915183 5.3384829,5.5301393 2.0857,-3.877121 5.085671,-6.4386656 7.859573,-6.710936 -0.741259,-0.6559343 -1.70367,-1.1900071 -2.811709,-1.5603128 0.455423,-0.8088315 1.918944,-4.1545391 1.55275,-4.1545391 -0.180102,0 -2.506975,0.00976 -4.817756,0.02013 -0.0122,-4.88e-5 -0.0122,6.1e-5 -0.02391,0 -2.310805,-0.00976 -4.637654,-0.02013 -4.8177562,-0.02013 z m 11.639,6.4801914 c -2.588835,0.2656706 -5.40879,2.6062437 -7.41701,6.1561607 0.288141,-0.03148 0.586982,-0.04428 0.895205,-0.03843 1.707805,0.03697 3.65543,0.646419 5.59066,1.749455 1.198778,-2.856151 2.886101,-5.252646 0.931169,-7.8671378 z M 5.0781461,10.533403 c -0.027693,0.163047 -0.068805,0.304964 -0.1027203,0.445052 -0.5195675,2.521614 4.4745583,10.621543 5.1783522,11.40323 0,0 0.82142,0.124533 1.859141,0.226326 -0.0086,-0.01293 -0.01317,-0.02025 -0.02147,-0.03281 C 11.802317,20.918944 11.369305,19.201844 10.730584,17.575262 9.3650633,14.131617 7.2242946,11.464607 5.0781584,10.533366 Z m 7.4264629,5.688354 c -0.321787,0.01098 -0.631852,0.04367 -0.928631,0.09771 0.111993,0.257167 0.219458,0.517933 0.322155,0.781736 0.684456,1.799302 1.133498,3.698531 1.304987,5.519415 1.096693,-0.103818 1.985224,-0.238928 1.985224,-0.238928 0.325228,-0.361193 1.626056,-2.355042 2.853334,-4.610328 -1.938781,-1.045332 -3.867789,-1.5852 -5.537069,-1.549613 z" /></g><g
     id="layer4"
     style="display:inline"
     transform="matrix(0.9,0,0,0.9,1.5625,1.25)" /><g
     id="layer5"
     style="display:inline"
     transform="matrix(0.9,0,0,0.9,1.5625,1.25)" /><g
     id="layer6"
     style="display:inline"
     transform="matrix(0.9,0,0,0.9,1.5625,1.25)" /><g
     id="layer7"
     style="display:inline"
     transform="matrix(0.9,0,0,0.9,1.5625,1.25)" /><g
     id="layer8"
     style="display:inline"
     transform="matrix(0.9,0,0,0.9,1.5625,1.25)" /><g
     id="layer10"
     style="display:inline"
     transform="matrix(0.9,0,0,0.9,1.5625,1.25)" /><g
     id="layer11"
     style="display:inline"
     transform="matrix(0.9,0,0,0.9,1.5625,1.25)" /><g
     id="layer12"
     style="display:inline"
     transform="matrix(0.9,0,0,0.9,1.5625,1.25)" /><g
     id="layer13"
     style="display:inline"
     transform="matrix(0.9,0,0,0.9,1.5625,1.25)"><path
       id="rect4623-0-2-5-7-7"
       style="display:none;fill:#000000;stroke-width:0.680748"
       d="m 261.18395,644.94509 v 24.91528 h 24.91529 v -24.91528 z m 7.49019,2.3441 h 5.2e-4 c 0.18456,0 2.56941,0.0104 4.93743,0.0206 0.0119,6e-5 0.0117,-4e-5 0.0243,0 2.36799,-0.0104 4.75234,-0.0206 4.93689,-0.0206 0.37527,0 -1.12449,3.42838 -1.59118,4.25723 1.13546,0.37946 2.12193,0.9269 2.88153,1.59909 -2.84258,0.27901 -5.91713,2.90378 -8.05448,6.87689 -1.525,-2.9089 -3.52425,-4.98005 -5.47063,-5.66717 0.74781,-1.21832 2.14361,-2.21641 3.92739,-2.80881 -0.46668,-0.82885 -1.96696,-4.25723 -1.59171,-4.25723 z m 11.92706,6.64032 c 2.00335,2.67923 0.27428,5.13551 -0.95418,8.06237 -1.98315,-1.13033 -3.97872,-1.75516 -5.72881,-1.79298 -0.31585,-0.006 -0.62203,0.007 -0.91731,0.0396 2.05795,-3.63781 4.94737,-6.03666 7.6003,-6.30891 z m -14.75801,1.62069 c 2.19928,0.95432 4.39324,3.68731 5.79256,7.2162 0.65453,1.66686 1.09811,3.42617 1.29191,5.12342 0.008,0.0128 0.014,0.0205 0.0221,0.0338 -1.06341,-0.10429 -1.90521,-0.23182 -1.90521,-0.23182 -0.72122,-0.80106 -5.8392,-9.1017 -5.30677,-11.68576 0.0347,-0.14354 0.0771,-0.28867 0.10537,-0.45576 z m 7.6103,5.82891 c 1.71061,-0.0365 3.68724,0.51682 5.67402,1.58803 -1.25765,2.31113 -2.5904,4.35443 -2.92368,4.72458 0,0 -0.91045,0.13857 -2.03429,0.24499 -0.17576,-1.86598 -0.63637,-3.81224 -1.33777,-5.65609 -0.10524,-0.27033 -0.21506,-0.53786 -0.32982,-0.80139 0.30412,-0.0554 0.62181,-0.0888 0.95154,-0.10013 z"
       transform="translate(-129.64101,-615.96543)" /><path
       style="display:none;fill:#d4aa00;fill-opacity:1;stroke:none;stroke-width:0.597439;stroke-dasharray:none;stroke-opacity:1"
       d="m 7.3873719,77.487097 c 0,0 3.6719101,6.55365 4.1831901,6.69308 0.51128,0.13944 1.30143,0.093 1.53384,0.0465 0.23239,-0.0465 4.1367,-4.22967 4.1367,-4.22967 0,0 0.55776,-0.74366 0.51128,-0.92959 -0.0465,-0.18592 -2.50991,-3.43951 -2.50991,-3.43951 z"
       id="path18154-5-4-3-7-3-3-0-7-5" /></g><g
     id="layer14"
     transform="matrix(0.9,0,0,0.9,1.5625,1.25)" /><g
     id="layer37"
     style="display:inline"
     transform="matrix(0.9,0,0,0.9,-115.11441,-553.11889)" /><g
     id="layer9"
     style="display:none"><rect
       style="display:inline;fill:#d4aa00;stroke-width:0.667673"
       id="rect4623"
       width="24.436783"
       height="24.436783"
       x="129.91136"
       y="565.08679"
       transform="translate(-129.64101,-615.96543)" /><path
       id="rect4623-0"
       style="display:inline;fill:#000000;stroke-width:0.667673"
       d="m 163.27531,565.09151 v 24.43675 h 24.43675 v -24.43675 z m 5.47511,2.09755 c 4.14881,0.006 8.62738,0.0257 13.12788,5.1e-4 l -5.1e-4,5.2e-4 0.002,5.2e-4 c 0.42091,0 -0.65789,3.0382 -1.18133,3.88348 1.91179,1.22041 2.86477,2.56182 3.19878,4.7563 0.002,0.0157 0.005,0.0319 0.009,0.0481 0.0837,0.64274 -0.0758,1.4144 -0.30748,1.942 -1.17164,3.47235 -4.87818,8.87268 -5.51594,9.51673 -1.88271,0.31012 -3.62359,0.3535 -5.53661,-5.2e-4 -0.63777,-0.64405 -4.34431,-6.04437 -5.51595,-9.51673 -0.23167,-0.52759 -0.39117,-1.29926 -0.30747,-1.942 0.004,-0.0162 0.007,-0.0324 0.009,-0.0481 0.33401,-2.19448 1.28698,-3.53589 3.19878,-4.7563 -0.52344,-0.8453 -1.60224,-3.88348 -1.18133,-3.88348 l 0.002,-5.2e-4 z m 1.34152,1.02887 5.2e-4,5.2e-4 -0.002,5.2e-4 c -0.35685,0 0.71636,2.73855 1.16014,3.50056 -1.89837,0.8261 -3.14246,2.30931 -3.42563,4.28759 -0.002,0.0142 -0.005,0.0288 -0.007,0.0434 -0.0177,0.10838 -0.0237,0.22668 -0.0207,0.35502 1e-5,10e-4 -3e-5,10e-4 0,0.002 -0.001,0.0132 -5.5e-4,0.0266 -0.002,0.0398 0.002,0.45809 0.0975,0.91353 0.28319,1.35443 0.99332,3.13022 4.35408,7.9982 4.89479,8.57881 1.48454,0.25992 3.08389,0.31147 4.68292,5.2e-4 0.54071,-0.58061 3.90147,-5.44858 4.89479,-8.57881 0.18569,-0.44091 0.28119,-0.89635 0.28319,-1.35444 -0.001,-0.0132 -0.001,-0.0266 -0.002,-0.0398 3e-5,-10e-4 -1e-5,-10e-4 0,-0.002 0.003,-0.12834 -0.003,-0.24663 -0.0207,-0.35501 -0.002,-0.0146 -0.005,-0.0292 -0.007,-0.0434 -0.28317,-1.97828 -1.52727,-3.46151 -3.42563,-4.28759 0.44376,-0.762 1.51698,-3.50057 1.16013,-3.50057 l -0.002,-5.1e-4 5.2e-4,-5.2e-4 c -3.35189,0.004 -6.94363,0.0307 -10.44536,-5.2e-4 z m 1.37305,0.89246 h 5.1e-4 c 0.14763,0 2.05495,0.009 3.94912,0.0165 0.01,5e-5 0.01,-4e-5 0.0196,0 1.89415,-0.009 3.80149,-0.0165 3.94912,-0.0165 0.30017,0 -0.8995,2.74247 -1.27279,3.40547 0.90824,0.30354 1.69715,0.74132 2.30476,1.27899 -2.27375,0.22318 -4.73285,2.32288 -6.4425,5.50096 -1.21985,-2.32682 -2.81906,-3.98344 -4.37596,-4.53306 0.59818,-0.97454 1.71456,-1.77303 3.14141,-2.24689 -0.3733,-0.663 -1.57346,-3.40547 -1.2733,-3.40547 z m 9.5405,5.31182 c 1.60246,2.14308 0.21938,4.10751 -0.76326,6.4487 -1.58631,-0.90415 -3.18278,-1.40372 -4.58267,-1.43402 -0.25265,-0.005 -0.49761,0.006 -0.7338,0.0315 1.64614,-2.90987 3.95766,-4.82843 6.07973,-5.0462 z m -11.80497,1.29604 c 1.75919,0.76334 3.51399,2.9495 4.63331,5.77226 0.52356,1.33331 0.8785,2.74083 1.03353,4.09846 0.007,0.0103 0.0106,0.0163 0.0176,0.0269 -0.85062,-0.0834 -1.52394,-0.18552 -1.52394,-0.18552 -0.57688,-0.64075 -4.67059,-7.28028 -4.2447,-9.34723 0.0278,-0.11483 0.0615,-0.23119 0.0842,-0.36484 z m 6.08749,4.66277 c 1.36831,-0.0292 2.94952,0.41334 4.53874,1.2702 -1.006,1.84866 -2.07229,3.48303 -2.33888,3.7791 0,0 -0.72833,0.11075 -1.62729,0.19585 -0.14057,-1.49258 -0.50865,-3.04938 -1.0697,-4.52427 -0.0842,-0.21624 -0.17227,-0.42999 -0.26407,-0.64079 0.24327,-0.0443 0.49743,-0.0711 0.7612,-0.0801 z"
       transform="translate(-129.64101,-615.96543)" /><rect
       style="display:inline;fill:#d4aa00;stroke-width:0.667673"
       id="rect4623-0-2-5"
       width="24.436783"
       height="24.436783"
       x="226.83186"
       y="565.03607"
       transform="translate(-129.64101,-615.96543)" /><path
       id="path18154-5-4-3-7"
       style="display:inline;fill:#d4aa00;fill-opacity:1;stroke:none;stroke-width:0.585965;stroke-dasharray:none;stroke-opacity:1"
       d="m 239.21272,542.73862 a 6.229785,3.8746066 0 0 0 -6.2296,3.87418 6.229785,3.8746066 0 0 0 1.79938,2.72076 l -0.755,0.1788 c 1.75458,2.08562 1.34648,6.86 5.6069,6.61045 0.22793,-0.0456 3.94084,-3.92482 3.94084,-3.92482 0,0 0.62488,-1.03102 0.57929,-1.21337 -0.0196,-0.0784 -0.47333,-0.70125 -0.9803,-1.38234 a 6.229785,3.8746066 0 0 0 2.2686,-2.98948 6.229785,3.8746066 0 0 0 -6.23011,-3.87418 z"
       transform="translate(-129.64101,-615.96543)" /><path
       id="path18154-5-6-5-9-7-2-2"
       style="display:inline;fill:#d4aa00;fill-opacity:1;stroke:none;stroke-width:0.684952;stroke-dasharray:none;stroke-opacity:1"
       d="m 136.94439,538.72195 -0.002,5.2e-4 c -0.35685,0 0.71635,2.73855 1.16013,3.50056 -1.8984,0.8261 -3.14246,2.30931 -3.42563,4.28759 -0.002,0.0142 -0.005,0.0288 -0.007,0.0434 -0.0174,0.10838 -0.0241,0.22668 -0.0207,0.35502 1e-5,6.1e-4 -3e-5,10e-4 0,0.002 -7.4e-4,0.0132 -0.001,0.0266 -0.002,0.0398 0.002,0.45809 0.0975,0.91352 0.28319,1.35444 0.99332,3.13025 4.35408,7.99819 4.89479,8.5788 1.60194,0.28477 3.26323,0.35324 4.75526,0 0.54071,-0.58061 3.90147,-5.44855 4.89479,-8.5788 0.18569,-0.44092 0.28119,-0.89635 0.28319,-1.35444 -0.001,-0.0132 -0.001,-0.0266 -0.002,-0.0398 3e-5,-10e-4 -10e-6,-9.4e-4 0,-0.002 0.003,-0.12834 -0.003,-0.24664 -0.0207,-0.35502 -0.002,-0.0146 -0.005,-0.0292 -0.007,-0.0434 -0.28317,-1.97829 -1.52722,-3.46149 -3.42563,-4.28759 0.44379,-0.76201 1.51698,-3.50056 1.16013,-3.50056 l -0.002,-5.2e-4 v -5.2e-4 c -3.5794,0.0366 -6.75536,0.005 -10.51718,0 z"
       transform="translate(-129.64101,-615.96543)" /><path
       style="display:inline;fill:#d4aa00;fill-opacity:1;stroke:none;stroke-width:0.585965;stroke-dasharray:none;stroke-opacity:1"
       d="m 137.12177,549.5452 c 0,0 3.60138,6.42778 4.10284,6.56454 0.50146,0.13676 1.27644,0.0912 1.50438,0.0456 0.22793,-0.0456 4.05725,-4.14843 4.05725,-4.14843 0,0 0.54705,-0.72939 0.50146,-0.91174 -0.0456,-0.18235 -2.4617,-3.37345 -2.4617,-3.37345 z"
       id="path18154-5-4-3-7-3-3"
       transform="translate(-129.64101,-615.96543)" /><path
       id="path18154-5-6-5-8-2-1-7-3-7-0"
       style="display:inline;fill:#000000;fill-opacity:1;stroke:none;stroke-width:0.783494;stroke-dasharray:none;stroke-opacity:1"
       d="m 135.62214,537.74044 5.2e-4,5.2e-4 -0.002,5.1e-4 c -0.42091,0 0.65788,3.0382 1.18132,3.88349 -1.9118,1.22041 -2.86476,2.56182 -3.19877,4.7563 -0.002,0.0157 -0.005,0.0318 -0.009,0.048 -0.0837,0.64274 0.0758,1.41441 0.30747,1.942 1.17164,3.47236 4.87817,8.87269 5.51594,9.51674 1.91302,0.35402 3.65391,0.31063 5.53662,5.1e-4 0.63776,-0.64405 4.3443,-6.04437 5.51594,-9.51673 0.23167,-0.5276 0.39117,-1.29926 0.30747,-1.942 -0.004,-0.0162 -0.007,-0.0324 -0.009,-0.0481 -0.33401,-2.19448 -1.28698,-3.53589 -3.19877,-4.7563 0.52344,-0.84529 1.60223,-3.88348 1.18132,-3.88348 l -0.002,-5.2e-4 5.2e-4,-5.1e-4 c -4.50052,0.0252 -8.97907,0.005 -13.12788,-5.2e-4 z m 1.34152,1.02888 c 3.50173,0.0312 7.09347,0.005 10.44536,5.1e-4 l -5.2e-4,5.2e-4 0.002,5.2e-4 c 0.35685,0 -0.71636,2.73855 -1.16014,3.50056 1.89838,0.8261 3.14246,2.30931 3.42563,4.28759 0.002,0.0142 0.005,0.0288 0.007,0.0434 0.0177,0.10838 0.0237,0.22668 0.0207,0.35502 -1e-5,10e-4 3e-5,10e-4 0,0.002 0.001,0.0132 5.5e-4,0.0266 0.002,0.0398 -0.002,0.45809 -0.0975,0.91352 -0.28319,1.35443 -0.99332,3.13023 -4.35408,7.9982 -4.89479,8.57881 -1.59903,0.31095 -3.19838,0.2594 -4.68292,-5.2e-4 -0.54071,-0.58061 -3.90147,-5.44858 -4.89479,-8.5788 -0.18569,-0.44092 -0.28119,-0.89635 -0.28319,-1.35444 0.001,-0.0132 0.001,-0.0266 0.002,-0.0398 -3e-5,-0.001 1e-5,-0.001 0,-0.002 -0.003,-0.12834 0.003,-0.24664 0.0207,-0.35502 0.002,-0.0146 0.005,-0.0292 0.007,-0.0434 0.28317,-1.97828 1.52726,-3.4615 3.42563,-4.2876 -0.44378,-0.76201 -1.51698,-3.50056 -1.16013,-3.50056 l 0.002,-5.2e-4 z"
       transform="translate(-129.64101,-615.96543)" /><path
       id="path10013-2-3-4-5-8-7-27-4"
       style="display:inline;fill:#000000;fill-opacity:1;stroke:none;stroke-width:0.531;stroke-dasharray:none;stroke-opacity:1"
       d="m 235.26002,539.60005 c -0.30016,0 0.9,2.74248 1.2733,3.40548 -1.42685,0.47386 -2.54323,1.27236 -3.14141,2.2469 1.5569,0.54962 3.15611,2.20624 4.37596,4.53306 1.70965,-3.17808 4.16873,-5.27778 6.4425,-5.50096 -0.60761,-0.53767 -1.3965,-0.97545 -2.30476,-1.27899 0.37331,-0.663 1.57296,-3.40548 1.27279,-3.40548 -0.14763,0 -2.05497,0.008 -3.94912,0.0165 -0.01,-4e-5 -0.01,5e-5 -0.0196,0 -1.89417,-0.008 -3.80149,-0.0165 -3.94912,-0.0165 z m 9.5405,5.31182 c -2.12207,0.21777 -4.43359,2.13634 -6.07973,5.04621 0.23619,-0.0258 0.48115,-0.0363 0.7338,-0.0315 1.39989,0.0303 2.99636,0.52987 4.58267,1.43402 0.98264,-2.34119 2.36574,-4.30559 0.76328,-6.44869 z m -11.80496,1.29606 c -0.0227,0.13365 -0.0564,0.24998 -0.0842,0.36481 -0.42589,2.06697 3.6678,8.70648 4.2447,9.34724 0,0 0.67332,0.10208 1.52394,0.18552 -0.007,-0.0106 -0.0108,-0.0166 -0.0176,-0.0269 -0.15503,-1.35763 -0.50997,-2.76514 -1.03353,-4.09845 -1.11932,-2.82276 -2.87411,-5.00891 -4.6333,-5.77226 z m 6.08748,4.66275 c -0.26377,0.009 -0.51793,0.0358 -0.7612,0.0801 0.0918,0.2108 0.17989,0.42455 0.26407,0.64079 0.56105,1.47489 0.92913,3.03169 1.0697,4.52427 0.89896,-0.0851 1.62729,-0.19585 1.62729,-0.19585 0.26659,-0.29608 1.33288,-1.93043 2.33888,-3.7791 -1.58922,-0.85686 -3.17043,-1.29938 -4.53874,-1.27021 z"
       transform="translate(-129.64101,-615.96543)" /><path
       id="path10013-2-3-4-5-8-7-27-4-1"
       style="display:inline;fill:#000000;fill-opacity:1;stroke:none;stroke-width:0.531;stroke-dasharray:none;stroke-opacity:1"
       d="m 267.45367,539.60325 c -0.30016,0 0.9,2.74248 1.2733,3.40548 -1.42685,0.47386 -2.54323,1.27236 -3.14141,2.2469 1.5569,0.54962 3.15611,2.20624 4.37596,4.53306 1.70965,-3.17808 4.16873,-5.27778 6.4425,-5.50096 -0.60761,-0.53767 -1.3965,-0.97545 -2.30476,-1.27899 0.37331,-0.663 1.57296,-3.40548 1.27279,-3.40548 -0.14763,0 -2.05497,0.008 -3.94912,0.0165 -0.01,-4e-5 -0.01,5e-5 -0.0196,0 -1.89417,-0.008 -3.80149,-0.0165 -3.94912,-0.0165 z m 9.5405,5.31182 c -2.12207,0.21777 -4.43359,2.13634 -6.07973,5.04621 0.23619,-0.0258 0.48115,-0.0363 0.7338,-0.0315 1.39989,0.0303 2.99636,0.52987 4.58267,1.43402 0.98264,-2.34119 2.36574,-4.30559 0.76328,-6.44869 z m -11.80496,1.29606 c -0.0227,0.13365 -0.0564,0.24998 -0.0842,0.36481 -0.42589,2.06697 3.6678,8.70648 4.2447,9.34724 0,0 0.67332,0.10208 1.52394,0.18552 -0.007,-0.0106 -0.0108,-0.0166 -0.0176,-0.0269 -0.15503,-1.35763 -0.50997,-2.76514 -1.03353,-4.09845 -1.11932,-2.82276 -2.87411,-5.00891 -4.6333,-5.77226 z m 6.08748,4.66275 c -0.26377,0.009 -0.51793,0.0358 -0.7612,0.0801 0.0918,0.2108 0.17989,0.42455 0.26407,0.64079 0.56105,1.47489 0.92913,3.03169 1.0697,4.52427 0.89896,-0.0851 1.62729,-0.19585 1.62729,-0.19585 0.26659,-0.29608 1.33288,-1.93043 2.33888,-3.7791 -1.58922,-0.85686 -3.17043,-1.29938 -4.53874,-1.27021 z"
       transform="translate(-129.64101,-615.96543)" /><path
       id="path10013-2-3-4-5-8-7-27-4-9"
       style="display:inline;fill:#000000;fill-opacity:1;stroke:none;stroke-width:0.531;stroke-dasharray:none;stroke-opacity:1"
       d="m 138.33641,539.66162 c -0.30016,0 0.9,2.74248 1.2733,3.40548 -1.42685,0.47386 -2.54323,1.27236 -3.14141,2.2469 1.5569,0.54962 3.15611,2.20624 4.37596,4.53306 1.70965,-3.17808 4.16873,-5.27778 6.4425,-5.50096 -0.60761,-0.53767 -1.3965,-0.97545 -2.30476,-1.27899 0.37331,-0.663 1.57296,-3.40548 1.27279,-3.40548 -0.14763,0 -2.05497,0.008 -3.94912,0.0165 -0.01,-4e-5 -0.01,5e-5 -0.0196,0 -1.89417,-0.008 -3.80149,-0.0165 -3.94912,-0.0165 z m 9.5405,5.31182 c -2.12207,0.21777 -4.43359,2.13634 -6.07973,5.04621 0.23619,-0.0258 0.48115,-0.0363 0.7338,-0.0315 1.39989,0.0303 2.99636,0.52987 4.58267,1.43402 0.98264,-2.34119 2.36574,-4.30559 0.76328,-6.44869 z m -11.80496,1.29606 c -0.0227,0.13365 -0.0564,0.24998 -0.0842,0.36481 -0.42589,2.06697 3.6678,8.70648 4.2447,9.34724 0,0 0.67332,0.10208 1.52394,0.18552 -0.007,-0.0106 -0.0108,-0.0166 -0.0176,-0.0269 -0.15503,-1.35763 -0.50997,-2.76514 -1.03353,-4.09845 -1.11932,-2.82276 -2.87411,-5.00891 -4.6333,-5.77226 z m 6.08748,4.66275 c -0.26377,0.009 -0.51793,0.0358 -0.7612,0.0801 0.0918,0.2108 0.17989,0.42455 0.26407,0.64079 0.56105,1.47489 0.92913,3.03169 1.0697,4.52427 0.89896,-0.0851 1.62729,-0.19585 1.62729,-0.19585 0.26659,-0.29608 1.33288,-1.93043 2.33888,-3.7791 -1.58922,-0.85686 -3.17043,-1.29938 -4.53874,-1.27021 z"
       transform="translate(-129.64101,-615.96543)" /><path
       id="path18154-5-6-5-9-7-2-2-5"
       style="display:inline;fill:#000000;fill-opacity:1;stroke:none;stroke-width:0.684952;stroke-dasharray:none;stroke-opacity:1"
       d="m 202.60197,538.79932 v 5.2e-4 l -0.002,5.2e-4 c -0.35685,0 0.71636,2.73855 1.16014,3.50056 -1.8984,0.8261 -3.14246,2.30931 -3.42563,4.28759 -0.002,0.0142 -0.005,0.0288 -0.007,0.0434 -0.0174,0.10838 -0.0241,0.22668 -0.0207,0.35502 1e-5,6.1e-4 -3e-5,10e-4 0,0.002 -7.4e-4,0.0132 -0.001,0.0266 -0.002,0.0398 0.002,0.45809 0.0975,0.91352 0.28319,1.35444 0.99332,3.13025 4.35408,7.9982 4.89479,8.57881 1.60194,0.28477 3.26324,0.35324 4.75526,0 0.54071,-0.58061 3.90148,-5.44856 4.8948,-8.57881 0.18569,-0.44092 0.28118,-0.89635 0.28318,-1.35444 -0.001,-0.0132 -0.001,-0.0266 -0.002,-0.0398 3e-5,-10e-4 -10e-6,-10e-4 0,-0.002 0.003,-0.12834 -0.003,-0.24664 -0.0207,-0.35502 -0.002,-0.0146 -0.005,-0.0292 -0.007,-0.0434 -0.28317,-1.97829 -1.52722,-3.46149 -3.42563,-4.28759 0.44379,-0.76201 1.51699,-3.50056 1.16014,-3.50056 l -0.002,-5.2e-4 v -5.2e-4 c -3.5794,0.0366 -6.75538,0.005 -10.51719,0 z m 1.39216,0.94 h 5.2e-4 c 0.14763,0 2.05494,0.009 3.94911,0.0165 0.01,5e-5 0.01,-4e-5 0.0196,0 1.89415,-0.009 3.80148,-0.0165 3.94911,-0.0165 0.30017,0 -0.89948,2.74247 -1.27279,3.40547 0.90826,0.30354 1.69716,0.74133 2.30477,1.27899 -2.27377,0.22318 -4.73285,2.32288 -6.4425,5.50096 -1.21985,-2.32682 -2.81906,-3.98344 -4.37596,-4.53306 0.59818,-0.97453 1.71456,-1.77303 3.14141,-2.24689 -0.3733,-0.663 -1.57347,-3.40547 -1.27331,-3.40547 z m 9.5405,5.31182 c 1.60246,2.14309 0.21938,4.10751 -0.76326,6.4487 -1.58631,-0.90415 -3.18277,-1.40372 -4.58266,-1.43402 -0.25265,-0.005 -0.49762,0.006 -0.73381,0.0315 1.64614,-2.90987 3.95767,-4.82843 6.07973,-5.0462 z m -11.80496,1.29604 c 1.75919,0.76335 3.51399,2.9495 4.63331,5.77226 0.52356,1.33331 0.8785,2.74083 1.03353,4.09846 0.007,0.0103 0.0106,0.0163 0.0176,0.0269 -0.85062,-0.0834 -1.52394,-0.18552 -1.52394,-0.18552 -0.5769,-0.64076 -4.67059,-7.28027 -4.2447,-9.34723 0.0278,-0.11483 0.0615,-0.23119 0.0842,-0.36484 z m 6.08748,4.66277 c 1.36831,-0.0292 2.94953,0.41334 4.53874,1.2702 -1.00599,1.84867 -2.07228,3.48302 -2.33887,3.7791 0,0 -0.72833,0.11075 -1.62729,0.19585 -0.14057,-1.49257 -0.50865,-3.04938 -1.0697,-4.52427 -0.0842,-0.21624 -0.17227,-0.42999 -0.26407,-0.64079 0.24327,-0.0443 0.49742,-0.0711 0.76119,-0.0801 z"
       transform="translate(-129.64101,-615.96543)" /><path
       id="path18154-5-6-5-8-2-1-7-3-7-0-2"
       style="display:inline;fill:#000000;fill-opacity:1;stroke:none;stroke-width:0.783494;stroke-dasharray:none;stroke-opacity:1"
       d="m 168.90639,537.74044 5.2e-4,5.2e-4 -0.002,5.1e-4 c -0.42091,0 0.65788,3.0382 1.18132,3.88349 -1.9118,1.22041 -2.86476,2.56182 -3.19877,4.7563 -0.002,0.0157 -0.005,0.0318 -0.009,0.048 -0.0837,0.64274 0.0758,1.41441 0.30747,1.942 1.17164,3.47236 4.87817,8.87269 5.51594,9.51674 1.91302,0.35402 3.65391,0.31063 5.53662,5.1e-4 0.63776,-0.64405 4.3443,-6.04437 5.51594,-9.51673 0.23167,-0.5276 0.39117,-1.29926 0.30747,-1.942 -0.004,-0.0162 -0.007,-0.0324 -0.009,-0.0481 -0.33401,-2.19448 -1.28698,-3.53589 -3.19877,-4.7563 0.52344,-0.84529 1.60223,-3.88348 1.18132,-3.88348 l -0.002,-5.2e-4 5.2e-4,-5.1e-4 c -4.50052,0.0252 -8.97907,0.005 -13.12788,-5.2e-4 z m 1.34152,1.02888 c 3.50173,0.0312 7.09347,0.005 10.44536,5.1e-4 l -5.2e-4,5.2e-4 0.002,5.2e-4 c 0.35685,0 -0.71636,2.73855 -1.16014,3.50056 1.89838,0.8261 3.14246,2.30931 3.42563,4.28759 0.002,0.0142 0.005,0.0288 0.007,0.0434 0.0177,0.10838 0.0237,0.22668 0.0207,0.35502 -1e-5,10e-4 3e-5,10e-4 0,0.002 0.001,0.0132 5.5e-4,0.0266 0.002,0.0398 -0.002,0.45809 -0.0975,0.91352 -0.28319,1.35443 -0.99332,3.13023 -4.35408,7.9982 -4.89479,8.57881 -1.59903,0.31095 -3.19838,0.2594 -4.68292,-5.2e-4 -0.54071,-0.58061 -3.90147,-5.44858 -4.89479,-8.5788 -0.18569,-0.44092 -0.28119,-0.89635 -0.28319,-1.35444 10e-4,-0.0132 10e-4,-0.0266 0.002,-0.0398 -3e-5,-0.001 1e-5,-0.001 0,-0.002 -0.003,-0.12834 0.003,-0.24664 0.0207,-0.35502 0.002,-0.0146 0.005,-0.0292 0.007,-0.0434 0.28317,-1.97828 1.52726,-3.4615 3.42563,-4.2876 -0.44378,-0.76201 -1.51698,-3.50056 -1.16013,-3.50056 l 0.002,-5.2e-4 z"
       transform="translate(-129.64101,-615.96543)" /><path
       id="path10013-2-3-4-5-8-7-27-4-9-2"
       style="display:inline;fill:#000000;fill-opacity:1;stroke:none;stroke-width:0.531;stroke-dasharray:none;stroke-opacity:1"
       d="m 171.62066,539.66162 c -0.30016,0 0.9,2.74248 1.2733,3.40548 -1.42685,0.47386 -2.54323,1.27236 -3.14141,2.2469 1.5569,0.54962 3.15611,2.20624 4.37596,4.53306 1.70965,-3.17808 4.16873,-5.27778 6.4425,-5.50096 -0.60761,-0.53767 -1.3965,-0.97545 -2.30476,-1.27899 0.37331,-0.663 1.57296,-3.40548 1.27279,-3.40548 -0.14763,0 -2.05497,0.008 -3.94912,0.0165 -0.01,-4e-5 -0.01,5e-5 -0.0196,0 -1.89417,-0.008 -3.80149,-0.0165 -3.94912,-0.0165 z m 9.5405,5.31182 c -2.12207,0.21777 -4.43359,2.13634 -6.07973,5.04621 0.23619,-0.0258 0.48115,-0.0363 0.7338,-0.0315 1.39989,0.0303 2.99636,0.52987 4.58267,1.43402 0.98264,-2.34119 2.36574,-4.30559 0.76328,-6.44869 z m -11.80496,1.29606 c -0.0227,0.13365 -0.0564,0.24998 -0.0842,0.36481 -0.42589,2.06697 3.6678,8.70648 4.2447,9.34724 0,0 0.67332,0.10208 1.52394,0.18552 -0.007,-0.0106 -0.0108,-0.0166 -0.0176,-0.0269 -0.15503,-1.35763 -0.50997,-2.76514 -1.03353,-4.09845 -1.11932,-2.82276 -2.87411,-5.00891 -4.6333,-5.77226 z m 6.08748,4.66275 c -0.26377,0.009 -0.51793,0.0358 -0.7612,0.0801 0.0918,0.2108 0.17989,0.42455 0.26407,0.64079 0.56105,1.47489 0.92913,3.03169 1.0697,4.52427 0.89896,-0.0851 1.62729,-0.19585 1.62729,-0.19585 0.26659,-0.29608 1.33288,-1.93043 2.33888,-3.7791 -1.58922,-0.85686 -3.17043,-1.29938 -4.53874,-1.27021 z"
       transform="translate(-129.64101,-615.96543)" /><path
       id="path18154-5-4-3-7-7"
       style="display:inline;fill:#d4aa00;fill-opacity:1;stroke:none;stroke-width:0.585965;stroke-dasharray:none;stroke-opacity:1"
       d="m 239.05685,572.18738 a 6.229785,3.8746066 0 0 0 -6.2296,3.87418 6.229785,3.8746066 0 0 0 1.79938,2.72076 l -0.755,0.1788 c 1.75458,2.08562 1.34648,6.86 5.6069,6.61045 0.22793,-0.0456 3.94084,-3.92481 3.94084,-3.92481 0,0 0.62488,-1.03102 0.57929,-1.21338 -0.0196,-0.0784 -0.47333,-0.70124 -0.9803,-1.38234 a 6.229785,3.8746066 0 0 0 2.2686,-2.98947 6.229785,3.8746066 0 0 0 -6.23011,-3.87419 z"
       transform="translate(-129.64101,-615.96543)" /><path
       id="path18154-5-6-5-9-7-2-2-4"
       style="display:inline;fill:#d4aa00;fill-opacity:1;stroke:none;stroke-width:0.684952;stroke-dasharray:none;stroke-opacity:1"
       d="m 136.78852,568.17071 -0.002,5.2e-4 c -0.35685,0 0.71635,2.73855 1.16013,3.50056 -1.8984,0.8261 -3.14246,2.30931 -3.42563,4.28759 -0.002,0.0142 -0.005,0.0288 -0.007,0.0434 -0.0174,0.10838 -0.0241,0.22668 -0.0207,0.35502 10e-6,6.1e-4 -3e-5,10e-4 0,0.002 -7.4e-4,0.0132 -0.001,0.0266 -0.002,0.0398 0.002,0.45809 0.0975,0.91352 0.28319,1.35444 0.99332,3.13025 4.35408,7.99819 4.89479,8.5788 1.60194,0.28477 3.26323,0.35324 4.75526,0 0.54071,-0.58061 3.90147,-5.44855 4.89479,-8.5788 0.18569,-0.44092 0.28119,-0.89635 0.28319,-1.35444 -0.001,-0.0132 -0.001,-0.0266 -0.002,-0.0398 3e-5,-10e-4 -1e-5,-9.4e-4 0,-0.002 0.003,-0.12834 -0.003,-0.24664 -0.0207,-0.35502 -0.002,-0.0146 -0.005,-0.0292 -0.007,-0.0434 -0.28317,-1.97829 -1.52722,-3.46149 -3.42563,-4.28759 0.44379,-0.76201 1.51698,-3.50056 1.16013,-3.50056 l -0.002,-5.2e-4 v -5.2e-4 c -3.5794,0.0366 -6.75536,0.005 -10.51718,0 z"
       transform="translate(-129.64101,-615.96543)" /><path
       style="display:inline;fill:#d4aa00;fill-opacity:1;stroke:none;stroke-width:0.585965;stroke-dasharray:none;stroke-opacity:1"
       d="m 136.9659,578.99396 c 0,0 3.60138,6.42778 4.10284,6.56454 0.50146,0.13676 1.27644,0.0912 1.50438,0.0456 0.22793,-0.0456 4.05725,-4.14843 4.05725,-4.14843 0,0 0.54705,-0.72938 0.50146,-0.91174 -0.0456,-0.18235 -2.4617,-3.37345 -2.4617,-3.37345 z"
       id="path18154-5-4-3-7-3-3-0"
       transform="translate(-129.64101,-615.96543)" /><path
       id="path18154-5-6-5-8-2-1-7-3-7-0-5"
       style="display:inline;fill:#000000;fill-opacity:1;stroke:none;stroke-width:0.783494;stroke-dasharray:none;stroke-opacity:1"
       d="m 135.46627,567.1892 5.2e-4,5.3e-4 -0.002,5e-4 c -0.42091,0 0.65788,3.0382 1.18132,3.8835 -1.9118,1.22041 -2.86476,2.56182 -3.19877,4.7563 -0.002,0.0157 -0.005,0.0318 -0.009,0.048 -0.0837,0.64274 0.0758,1.41441 0.30747,1.942 1.17164,3.47236 4.87817,8.87269 5.51594,9.51674 1.91302,0.35402 3.65391,0.31063 5.53662,5.1e-4 0.63776,-0.64405 4.3443,-6.04437 5.51594,-9.51674 0.23167,-0.5276 0.39117,-1.29926 0.30747,-1.942 -0.004,-0.0162 -0.007,-0.0324 -0.009,-0.0481 -0.33401,-2.19448 -1.28698,-3.53589 -3.19877,-4.7563 0.52344,-0.84528 1.60223,-3.88347 1.18132,-3.88347 l -0.002,-5.3e-4 5.2e-4,-5e-4 c -4.50052,0.0252 -8.97907,0.005 -13.12788,-5.3e-4 z m 1.34152,1.02888 c 3.50173,0.0312 7.09347,0.005 10.44536,5.1e-4 l -5.2e-4,5.2e-4 0.002,5.2e-4 c 0.35685,0 -0.71636,2.73856 -1.16014,3.50056 1.89838,0.8261 3.14246,2.30931 3.42563,4.28759 0.002,0.0142 0.005,0.0288 0.007,0.0434 0.0177,0.10838 0.0237,0.22668 0.0207,0.35502 -1e-5,10e-4 3e-5,10e-4 0,0.002 0.001,0.0132 5.5e-4,0.0266 0.002,0.0398 -0.002,0.45809 -0.0975,0.91352 -0.28319,1.35443 -0.99332,3.13023 -4.35408,7.9982 -4.89479,8.57881 -1.59903,0.31095 -3.19838,0.2594 -4.68292,-5.2e-4 -0.54071,-0.58061 -3.90147,-5.44858 -4.89479,-8.5788 -0.18569,-0.44092 -0.28119,-0.89635 -0.28319,-1.35444 0.001,-0.0132 0.001,-0.0266 0.002,-0.0398 -3e-5,-10e-4 1e-5,-10e-4 0,-0.002 -0.003,-0.12834 0.003,-0.24664 0.0207,-0.35502 0.002,-0.0146 0.005,-0.0292 0.007,-0.0434 0.28317,-1.97828 1.52726,-3.4615 3.42563,-4.2876 -0.44378,-0.76201 -1.51698,-3.50056 -1.16013,-3.50056 l 0.002,-5.2e-4 z"
       transform="translate(-129.64101,-615.96543)" /><path
       id="path10013-2-3-4-5-8-7-27-4-8"
       style="display:inline;fill:#000000;fill-opacity:1;stroke:none;stroke-width:0.531;stroke-dasharray:none;stroke-opacity:1"
       d="m 235.10415,569.04881 c -0.30016,0 0.9,2.74248 1.2733,3.40548 -1.42685,0.47386 -2.54323,1.27236 -3.14141,2.2469 1.5569,0.54962 3.15611,2.20624 4.37596,4.53306 1.70965,-3.17808 4.16873,-5.27778 6.4425,-5.50096 -0.60761,-0.53767 -1.3965,-0.97545 -2.30476,-1.27899 0.37331,-0.663 1.57296,-3.40548 1.27279,-3.40548 -0.14763,0 -2.05497,0.008 -3.94912,0.0165 -0.01,-4e-5 -0.01,5e-5 -0.0196,0 -1.89417,-0.008 -3.80149,-0.0165 -3.94912,-0.0165 z m 9.5405,5.31182 c -2.12207,0.21777 -4.43359,2.13634 -6.07973,5.04621 0.23619,-0.0258 0.48115,-0.0363 0.7338,-0.0315 1.39989,0.0303 2.99636,0.52987 4.58267,1.43402 0.98264,-2.34119 2.36574,-4.30559 0.76328,-6.44869 z m -11.80496,1.29606 c -0.0227,0.13365 -0.0564,0.24999 -0.0842,0.36481 -0.42589,2.06697 3.6678,8.70649 4.2447,9.34725 0,0 0.67332,0.10208 1.52394,0.18552 -0.007,-0.0106 -0.0108,-0.0166 -0.0176,-0.0269 -0.15503,-1.35763 -0.50997,-2.76514 -1.03353,-4.09845 -1.11932,-2.82276 -2.87411,-5.00891 -4.6333,-5.77226 z m 6.08748,4.66275 c -0.26377,0.009 -0.51793,0.0358 -0.7612,0.0801 0.0918,0.2108 0.17989,0.42455 0.26407,0.64079 0.56105,1.47489 0.92913,3.03169 1.0697,4.52427 0.89896,-0.0851 1.62729,-0.19584 1.62729,-0.19584 0.26659,-0.29608 1.33288,-1.93043 2.33888,-3.7791 -1.58922,-0.85686 -3.17043,-1.29938 -4.53874,-1.27022 z"
       transform="translate(-129.64101,-615.96543)" /><path
       id="rect4623-0-2-5-9"
       style="display:inline;fill:#000000;stroke-width:0.667673"
       d="m 259.49837,565.20261 v 24.43676 h 24.43675 v -24.43676 z m 8.27185,4.01268 h 5.2e-4 c 0.14763,0 2.05546,0.009 3.94963,0.0165 0.01,5e-5 0.009,-4e-5 0.0191,0 1.89414,-0.008 3.80148,-0.0165 3.94911,-0.0165 0.30017,0 -0.89948,2.74248 -1.27279,3.40548 0.90826,0.30354 1.69716,0.74132 2.30477,1.27899 -2.27377,0.22318 -4.73286,2.32288 -6.4425,5.50095 -1.21985,-2.32681 -2.81907,-3.98343 -4.37596,-4.53305 0.59818,-0.97454 1.71456,-1.77303 3.14141,-2.24689 -0.3733,-0.663 -1.57347,-3.40548 -1.27331,-3.40548 z m 9.5405,5.31182 c 1.60246,2.1431 0.21938,4.10751 -0.76326,6.4487 -1.58631,-0.90415 -3.18278,-1.40372 -4.58267,-1.43402 -0.25264,-0.005 -0.49761,0.006 -0.7338,0.0315 1.64614,-2.90986 3.95766,-4.82843 6.07973,-5.0462 z m -11.80496,1.29604 c 1.75919,0.76335 3.51399,2.9495 4.63331,5.77226 0.52356,1.33331 0.8785,2.74083 1.03353,4.09846 0.007,0.0103 0.0111,0.0163 0.0181,0.0269 -0.85062,-0.0834 -1.52394,-0.18552 -1.52394,-0.18552 -0.5769,-0.64076 -4.67059,-7.28026 -4.2447,-9.34723 0.0278,-0.11482 0.061,-0.23119 0.0837,-0.36484 z m 6.08748,4.66277 c 1.36831,-0.0292 2.94952,0.41335 4.53874,1.27021 -1.006,1.84866 -2.07228,3.48301 -2.33887,3.77909 0,0 -0.72833,0.11076 -1.62729,0.19586 -0.14057,-1.49258 -0.50866,-3.04939 -1.06971,-4.52428 -0.0842,-0.21623 -0.17226,-0.42998 -0.26406,-0.64078 0.24327,-0.0443 0.49742,-0.0711 0.76119,-0.0801 z"
       transform="translate(-129.64101,-615.96543)" /><path
       id="path10013-2-3-4-5-8-7-27-4-9-8"
       style="display:inline;fill:#000000;fill-opacity:1;stroke:none;stroke-width:0.531;stroke-dasharray:none;stroke-opacity:1"
       d="m 138.18054,569.11038 c -0.30016,0 0.9,2.74248 1.2733,3.40548 -1.42685,0.47386 -2.54323,1.27236 -3.14141,2.2469 1.5569,0.54962 3.15611,2.20624 4.37596,4.53306 1.70965,-3.17808 4.16873,-5.27778 6.4425,-5.50096 -0.60761,-0.53767 -1.3965,-0.97545 -2.30476,-1.27899 0.37331,-0.663 1.57296,-3.40548 1.27279,-3.40548 -0.14763,0 -2.05497,0.008 -3.94912,0.0165 -0.01,-4e-5 -0.01,5e-5 -0.0196,0 -1.89417,-0.008 -3.80149,-0.0165 -3.94912,-0.0165 z m 9.5405,5.31182 c -2.12207,0.21777 -4.43359,2.13634 -6.07973,5.04621 0.23619,-0.0258 0.48115,-0.0363 0.7338,-0.0315 1.39989,0.0303 2.99636,0.52987 4.58267,1.43402 0.98264,-2.34119 2.36574,-4.30559 0.76328,-6.44869 z m -11.80496,1.29606 c -0.0227,0.13365 -0.0564,0.24998 -0.0842,0.36481 -0.42589,2.06697 3.6678,8.70649 4.2447,9.34724 0,0 0.67332,0.10208 1.52394,0.18552 -0.007,-0.0106 -0.0108,-0.0166 -0.0176,-0.0269 -0.15503,-1.35763 -0.50997,-2.76514 -1.03353,-4.09845 -1.11932,-2.82276 -2.87411,-5.00891 -4.6333,-5.77225 z m 6.08748,4.66275 c -0.26377,0.009 -0.51793,0.0358 -0.7612,0.0801 0.0918,0.2108 0.17989,0.42455 0.26407,0.64079 0.56105,1.47489 0.92913,3.03169 1.0697,4.52427 0.89896,-0.0851 1.62729,-0.19585 1.62729,-0.19585 0.26659,-0.29607 1.33288,-1.93043 2.33888,-3.77909 -1.58922,-0.85686 -3.17043,-1.29939 -4.53874,-1.27022 z"
       transform="translate(-129.64101,-615.96543)" /><path
       id="rect4623-7"
       style="display:inline;fill:#000000;stroke-width:0.667673"
       d="m 195.54031,565.02732 v 24.43676 h 24.43674 v -24.43676 z m 6.79235,3.08354 c 3.76181,0.005 6.93778,0.0366 10.51718,0 v 5.1e-4 l 0.002,5.2e-4 c 0.35685,0 -0.71635,2.73855 -1.16014,3.50056 1.89841,0.8261 3.14246,2.30931 3.42563,4.2876 0.002,0.0142 0.005,0.0288 0.007,0.0434 0.0177,0.10838 0.0237,0.22668 0.0207,0.35502 -1e-5,0.001 3e-5,0.001 0,0.002 0.001,0.0132 0.001,0.0266 0.002,0.0398 -0.002,0.45809 -0.0975,0.91352 -0.28319,1.35444 -0.99332,3.13025 -4.35408,7.99819 -4.89479,8.5788 -1.49203,0.35324 -3.15333,0.28477 -4.75527,0 -0.54071,-0.58061 -3.90147,-5.44855 -4.89478,-8.5788 -0.18569,-0.44092 -0.28119,-0.89635 -0.28319,-1.35444 0.001,-0.0132 0.001,-0.0266 0.002,-0.0398 -3e-5,-10e-4 1e-5,-10e-4 0,-0.002 -0.003,-0.12834 0.003,-0.24664 0.0207,-0.35502 0.002,-0.0146 0.005,-0.0292 0.007,-0.0434 0.28317,-1.97828 1.52723,-3.4615 3.42563,-4.2876 -0.44378,-0.76201 -1.51698,-3.50056 -1.16013,-3.50056 l 0.002,-5.2e-4 z"
       transform="translate(-129.64101,-615.96543)" /><path
       id="path18154-5-6-5-8-2-1-7-3-7-0-5-6"
       style="display:inline;fill:#000000;fill-opacity:1;stroke:none;stroke-width:0.783494;stroke-dasharray:none;stroke-opacity:1"
       d="m 201.01062,567.12975 5.2e-4,5.3e-4 -0.002,5e-4 c -0.42091,0 0.65788,3.0382 1.18132,3.8835 -1.9118,1.22041 -2.86476,2.56182 -3.19877,4.7563 -0.002,0.0157 -0.005,0.0318 -0.009,0.048 -0.0837,0.64274 0.0758,1.41441 0.30747,1.942 1.17164,3.47236 4.87816,8.87269 5.51593,9.51674 1.91302,0.35402 3.65391,0.31063 5.53662,5.1e-4 0.63776,-0.64405 4.3443,-6.04437 5.51594,-9.51674 0.23167,-0.5276 0.39117,-1.29926 0.30747,-1.942 -0.004,-0.0162 -0.007,-0.0324 -0.009,-0.0481 -0.33401,-2.19448 -1.28698,-3.53589 -3.19877,-4.7563 0.52344,-0.84528 1.60223,-3.88347 1.18132,-3.88347 l -0.002,-5.3e-4 5.2e-4,-5e-4 c -4.50052,0.0252 -8.97907,0.005 -13.12787,-5.3e-4 z m 1.34152,1.02888 c 3.50172,0.0312 7.09346,0.005 10.44535,5.1e-4 l -5.2e-4,5.2e-4 0.002,5.2e-4 c 0.35685,0 -0.71636,2.73856 -1.16014,3.50056 1.89838,0.8261 3.14246,2.30931 3.42563,4.28759 0.002,0.0142 0.005,0.0288 0.007,0.0434 0.0177,0.10838 0.0237,0.22668 0.0207,0.35502 -1e-5,10e-4 3e-5,10e-4 0,0.002 0.001,0.0132 5.5e-4,0.0266 0.002,0.0398 -0.002,0.45809 -0.0975,0.91352 -0.28319,1.35443 -0.99332,3.13023 -4.35408,7.9982 -4.89479,8.57881 -1.59903,0.31095 -3.19838,0.2594 -4.68292,-5.2e-4 -0.54071,-0.58061 -3.90146,-5.44858 -4.89478,-8.5788 -0.18569,-0.44092 -0.28119,-0.89635 -0.28319,-1.35444 10e-4,-0.0132 10e-4,-0.0266 0.002,-0.0398 -3e-5,-10e-4 1e-5,-10e-4 0,-0.002 -0.003,-0.12834 0.003,-0.24664 0.0207,-0.35502 0.002,-0.0146 0.005,-0.0292 0.007,-0.0434 0.28317,-1.97828 1.52726,-3.4615 3.42563,-4.2876 -0.44378,-0.76201 -1.51698,-3.50056 -1.16013,-3.50056 l 0.002,-5.2e-4 z"
       transform="translate(-129.64101,-615.96543)" /><path
       id="path10013-2-3-4-5-8-7-27-4-9-8-9"
       style="display:inline;fill:#000000;fill-opacity:1;stroke:none;stroke-width:0.531;stroke-dasharray:none;stroke-opacity:1"
       d="m 203.72489,569.05093 c -0.30016,0 0.89999,2.74248 1.27329,3.40548 -1.42684,0.47386 -2.54322,1.27236 -3.1414,2.2469 1.5569,0.54962 3.1561,2.20624 4.37595,4.53306 1.70965,-3.17808 4.16873,-5.27778 6.4425,-5.50096 -0.60761,-0.53767 -1.3965,-0.97545 -2.30476,-1.27899 0.37331,-0.663 1.57296,-3.40548 1.27279,-3.40548 -0.14763,0 -2.05497,0.008 -3.94912,0.0165 -0.01,-4e-5 -0.01,5e-5 -0.0196,0 -1.89417,-0.008 -3.80148,-0.0165 -3.94911,-0.0165 z m 9.54049,5.31182 c -2.12207,0.21777 -4.43359,2.13634 -6.07973,5.04621 0.23619,-0.0258 0.48115,-0.0363 0.7338,-0.0315 1.39989,0.0303 2.99636,0.52987 4.58267,1.43402 0.98264,-2.34119 2.36574,-4.30559 0.76328,-6.44869 z m -11.80495,1.29606 c -0.0227,0.13365 -0.0564,0.24998 -0.0842,0.36481 -0.42589,2.06697 3.66779,8.70649 4.24469,9.34724 0,0 0.67332,0.10208 1.52394,0.18552 -0.007,-0.0106 -0.0108,-0.0166 -0.0176,-0.0269 -0.15503,-1.35763 -0.50997,-2.76514 -1.03353,-4.09845 -1.11932,-2.82276 -2.8741,-5.00891 -4.63329,-5.77225 z m 6.08747,4.66275 c -0.26377,0.009 -0.51793,0.0358 -0.7612,0.0801 0.0918,0.2108 0.17989,0.42455 0.26407,0.64079 0.56105,1.47489 0.92913,3.03169 1.0697,4.52427 0.89896,-0.0851 1.62729,-0.19585 1.62729,-0.19585 0.26659,-0.29607 1.33288,-1.93043 2.33888,-3.77909 -1.58922,-0.85686 -3.17043,-1.29939 -4.53874,-1.27022 z"
       transform="translate(-129.64101,-615.96543)" /></g></svg>
